<svg width="1164" height="159" viewBox="0 0 1164 159" fill="none" xmlns="http://www.w3.org/2000/svg">
<g clip-path="url(#clip0_603_9)">
<path d="M244.505 39.6823C244.094 65.2187 244.078 90.776 244.521 116.307C256.349 115.974 269.838 118.401 279.896 110.589C288.948 103.031 289.265 90.125 289.427 79.2708C289.317 67.8854 289.599 54.4166 280.505 46.0312C270.479 37.7239 256.562 39.9375 244.505 39.6823ZM224.411 21.1875C241.453 21.6823 258.708 19.9635 275.588 23.0052C285.906 25.0312 296.213 30.0937 302.015 39.2031C310.104 51.802 310.76 67.3906 310.521 81.9218C310.239 95.3906 308.291 109.99 299.198 120.578C290.838 130.245 277.599 133.51 265.349 134.469C251.708 135.245 238.026 134.615 224.359 134.87C224.146 96.9895 224.041 59.0833 224.411 21.1875Z" fill="white"/>
<path d="M666.495 21.1875C692.865 21.2552 719.24 21.2552 745.615 21.1875C745.563 27.2969 745.563 33.4167 745.589 39.5365C735.813 39.6823 726.042 39.724 716.281 39.6406C715.88 71.375 716.161 103.125 716.135 134.854C709.479 134.828 702.813 134.818 696.161 134.896C695.786 103.151 696.016 71.401 696.052 39.6563C686.187 39.724 676.318 39.724 666.469 39.4427C666.562 33.3646 666.573 27.2708 666.495 21.1875Z" fill="white"/>
<path d="M986.267 21.2708C991.35 20.5364 996.563 23.9479 997.746 28.9739C999.35 34.2031 995.866 40.1093 990.735 41.7083C985.293 43.8697 979.017 39.8854 977.47 34.5104C975.548 28.6562 980.147 21.7604 986.267 21.2708Z" fill="white"/>
<mask id="mask0_603_9" style="mask-type:luminance" maskUnits="userSpaceOnUse" x="1141" y="20" width="23" height="23">
<path d="M1141.33 20H1163.2V42.6667H1141.33V20Z" fill="white"/>
</mask>
<g mask="url(#mask0_603_9)">
<path d="M1151.6 21.2708C1158.45 20.1094 1164.51 26.974 1162.96 33.6406C1162 41.4271 1151.17 45.3385 1145.75 39.3906C1139.07 33.8542 1142.9 21.75 1151.6 21.2708Z" fill="white"/>
</g>
<path d="M411.682 23.1615C417.828 22.4948 423.984 21.8802 430.146 21.3646C430.333 42.9219 430.052 64.4844 430.281 86.0417C437.359 79.4167 444.266 72.4844 449.734 64.4271C452.188 61.0417 454.188 57.2709 457.255 54.3646C463.359 52.6407 469.865 53.7344 476.135 53.7605C469.948 66.7084 461.307 78.3073 451.385 88.6303C460.255 104.042 469.573 119.203 478.229 134.75C471.682 134.75 465.068 135.484 458.573 134.427C455.984 132.537 454.563 129.563 452.906 126.912C447.958 118.109 442.906 109.375 437.708 100.724C435.24 102.219 432.786 103.724 430.333 105.229C430.172 115.109 430.24 125.005 430.026 134.88C423.896 134.828 417.76 134.818 411.625 134.854C411.708 97.6303 411.589 60.3907 411.682 23.1615Z" fill="white"/>
<path d="M826.255 23.1615C832.281 22.4844 838.317 21.8959 844.374 21.3646C844.505 42.724 843.708 64.1094 844.838 85.4584C853.411 78.2188 860.999 69.8177 866.973 60.3073C868.973 57.8855 870.385 53.9636 873.984 53.75C879.505 53.125 885.067 53.5782 890.614 53.7605C884.374 66.698 875.666 78.2188 865.895 88.6719C874.718 104.125 883.973 119.323 892.744 134.818C885.827 134.854 878.895 134.896 871.973 134.734C865.426 123.255 858.801 111.802 851.932 100.51C849.077 102.698 844.76 104.495 844.572 108.615C843.801 117.339 844.468 126.109 844.317 134.854C838.281 134.818 832.239 134.802 826.213 134.854C826.265 97.6303 826.197 60.3907 826.255 23.1615Z" fill="white"/>
<path d="M488.641 31.2031C494.709 30.6979 500.745 29.8542 506.829 29.4688C506.771 37.4948 506.735 45.5208 506.933 53.5521C513.162 53.5781 519.412 53.5781 525.652 53.6823C525.615 58.5885 525.615 63.4844 525.667 68.3906C519.402 68.4688 513.146 68.6979 506.896 68.8698C506.787 81.6979 506.641 94.5365 506.803 107.365C507.136 111.896 507.256 117.521 511.266 120.495C515.813 122.391 520.922 121.484 525.709 121.391C525.615 126.469 525.599 131.552 525.589 136.63C515.907 137.521 504.907 138.802 496.626 132.552C489.001 126.641 488.36 116.161 488.376 107.297C488.547 81.9375 488.105 56.5625 488.641 31.2031Z" fill="white"/>
<path d="M353.094 67.7239C345.453 70.1875 342.198 78.5885 341.469 85.9218C340.693 94.8854 340.386 104.495 344.375 112.792C349.985 124.578 369.839 124.672 375.531 112.896C378.906 106.245 379.068 98.5364 378.922 91.2291C378.667 84.5364 377.667 77.3073 373.198 72.0156C368.36 66.3646 359.828 65.4948 353.094 67.7239ZM350.453 52.0416C361.896 50.5364 374.719 50.8854 384.24 58.2708C394.266 65.9218 397.599 79.1614 398.078 91.2031C398.334 103.005 396.933 115.828 389.334 125.375C382.563 133.974 371.255 137.641 360.599 137.443C349.563 137.734 337.589 134.297 330.589 125.255C322.948 115.734 321.771 102.964 322.146 91.1875C322.266 81.8437 324.12 72.1093 329.771 64.4427C334.563 57.6562 342.334 53.375 350.453 52.0416Z" fill="white"/>
<path d="M566.385 67.6406C558.093 70.1771 554.718 79.3906 554.375 87.3073C554.026 96.4687 553.291 106.63 558.547 114.672C563.531 122.255 574.547 123.245 582.198 119.51C589.375 115.63 591.291 106.818 591.828 99.3385C592.213 90.6979 592.187 81.2812 587.505 73.6823C583.161 66.75 573.692 65.2812 566.385 67.6406ZM563.734 52.0052C575.161 50.5521 588 50.9896 597.453 58.401C606.906 65.8281 610.573 78.2708 610.88 89.8541C611.437 102.307 610.198 115.974 601.88 125.922C594.864 134.495 583.307 137.698 572.599 137.443C562.562 137.51 551.906 134.536 544.984 126.896C537.229 118.401 535.161 106.417 534.864 95.3073C534.854 84.8854 536.349 73.8698 542.317 65.0416C547.161 57.8698 555.265 53.3229 563.734 52.0052Z" fill="white"/>
<path d="M766.547 101.177C760.563 106.458 762.12 118.281 770.162 120.604C778 123.042 785.693 118.896 792.308 115.083C792.318 108.948 792.334 102.828 792.318 96.698C783.683 95.8282 773.428 94.698 766.547 101.177ZM754.375 51.8438C764.469 51.6823 774.563 51.125 784.652 51.5521C792.428 51.8282 800.709 54.5209 805.547 60.9375C810.068 66.8855 810.907 74.6407 810.881 81.8855C810.829 99.5521 810.803 117.219 810.865 134.88C805.412 134.818 799.974 134.818 794.547 134.854C794.162 132.427 793.787 130.005 793.438 127.589C788.24 131.188 782.839 134.964 776.454 135.948C768.349 137.245 759.12 136.828 752.615 131.245C744.532 124.615 742.532 113.125 744.375 103.297C745.855 94.6563 752.771 87.7084 760.881 84.8542C771.12 81.1094 782.256 82.698 792.771 84.125C792.282 78.5209 792.625 70.7084 786.068 68.5521C775.813 65.3386 764.907 67.75 754.412 68.2448C754.438 62.7761 754.438 57.3073 754.375 51.8438Z" fill="white"/>
<path d="M1029.69 63.4844C1035.21 58.4271 1041 52.5885 1048.84 51.6979C1055.31 51.0052 1062.36 51.0416 1068.16 54.401C1071.79 56.5625 1074.43 59.9375 1077.21 63.0416C1082.97 58.151 1089.13 52.9896 1096.86 51.8021C1105.16 50.6823 1114.8 51.2031 1121.13 57.401C1127.91 64.0937 1128.73 74.2552 1128.77 83.2708C1128.69 100.469 1128.92 117.682 1128.6 134.88C1122.49 134.844 1116.41 134.828 1110.33 134.87C1110.33 118.552 1110.37 102.229 1110.4 85.9219C1110.13 80.5364 1110.12 74.0156 1105.53 70.3229C1099.43 65.8958 1090.56 68.5364 1085.97 73.9739C1080.91 79.7916 1079.79 87.8281 1079.9 95.2708C1080 108.458 1079.93 121.656 1080.01 134.844C1073.9 134.818 1067.77 134.818 1061.65 134.88C1061.33 118.536 1061.6 102.187 1061.56 85.8437C1061.4 80.6302 1061.21 74.6146 1057.26 70.7083C1052.28 66.4166 1044.49 67.8281 1039.79 71.8437C1033.25 77.0937 1031.09 85.8281 1031 93.8854C1030.84 107.536 1031.04 121.203 1030.98 134.87C1024.95 134.828 1018.91 134.828 1012.88 134.87C1012.9 107.792 1012.93 80.6979 1012.85 53.6146C1018.24 53.6041 1023.64 53.6406 1029.04 53.8021C1029.23 57.0312 1029.44 60.2552 1029.69 63.4844Z" fill="white"/>
<path d="M653.479 56.1875C657.589 54.0677 662.146 53.151 666.625 52.1875C666.625 57.8177 666.625 63.4427 666.641 69.0833C659.162 71.5365 651.214 74.5208 646.427 81.1615C642.985 85.4948 642.068 91.1354 642.12 96.5208C642.042 109.297 642.506 122.094 641.854 134.87C635.787 134.828 629.719 134.828 623.667 134.854C623.719 107.802 623.745 80.7344 623.651 53.6719C628.907 53.6146 634.172 53.5885 639.427 53.5208C639.907 57.6719 640.214 61.8281 640.651 65.974C644.745 62.4948 648.641 58.6302 653.479 56.1875Z" fill="white"/>
<path d="M896.547 53.6146C903.042 53.6042 909.531 53.4948 916.016 53.8542C920.839 73.8698 925.411 94.0573 932.359 113.458C938.427 93.6979 943.411 73.6302 948.495 53.6042C954.813 53.5781 961.146 53.5781 967.479 53.6823C960.495 81.0834 952.188 108.151 942.719 134.792C935.479 134.854 928.255 134.828 921.026 134.802C911.359 108.229 903.615 80.9896 896.547 53.6146Z" fill="white"/>
<path d="M978.428 53.8698C984.548 53.6719 990.693 53.6146 996.829 53.6302C996.907 80.7084 997.146 107.792 996.709 134.87C990.6 134.844 984.506 134.844 978.428 134.854C978.563 107.854 978.563 80.8542 978.428 53.8698Z" fill="white"/>
<path d="M1143.6 53.8698C1149.71 53.6979 1155.81 53.6146 1161.92 53.6562C1162.16 80.7239 1162.51 107.802 1161.72 134.87C1155.68 134.818 1149.64 134.818 1143.62 134.854C1143.69 107.854 1143.74 80.8698 1143.6 53.8698Z" fill="white"/>
<path d="M67.2292 1.1939e-05C77.9375 0.015637 88.6458 -0.0208214 99.3542 0.015637C99.8385 4.01043 99.9948 8.03126 100.396 12.0365C100.922 17.3542 101.208 22.6979 101.734 28.0208C102.208 34.0521 102.74 40.0833 103.292 46.1094C103.38 47.0104 103.448 47.9115 103.464 48.8177C101.344 49.6823 99.151 50.349 97.0365 51.2136C92.2344 52.8438 87.5677 54.8125 82.8906 56.75C79.4063 58.3646 75.8958 59.9167 72.5313 61.7552C64.526 66 56.75 70.7136 49.5885 76.2761C46.0885 78.9479 42.7813 81.8542 39.5313 84.8229C38.4948 85.7344 37.6979 86.9271 36.5156 87.6615C35.4375 87.5938 34.4896 87.0052 33.5052 86.6198C23.9063 82.5313 14.2813 78.5104 4.68229 74.4219C3.09896 73.7552 1.45833 73.2188 0 72.3073C0.296875 70.8073 0.859375 69.3802 1.33333 67.9323C3.72917 60.6667 6.00521 53.3594 8.41146 46.0938C8.90625 44.6354 9.23438 43.1094 9.95313 41.7292C11.3021 41.8646 12.6042 42.2604 13.9167 42.5781C21.2969 44.2656 28.6198 46.1667 36.0052 47.8229C39.4115 48.5156 42.7448 49.5208 46.1615 50.1979C49.6563 50.9583 53.125 51.8281 56.6198 52.599C58.5938 53.0104 60.5208 53.6875 62.5365 53.8594C63.901 37.2448 65.3906 20.6354 66.7396 4.02085C66.8229 2.67189 66.8229 1.3021 67.2292 1.1939e-05Z" fill="#FAFAFA"/>
<mask id="mask1_603_9" style="mask-type:luminance" maskUnits="userSpaceOnUse" x="18" y="41" width="149" height="118">
<path d="M18.667 41.3334H166.667V158.708H18.667V41.3334Z" fill="white"/>
</mask>
<g mask="url(#mask1_603_9)">
<path d="M142.865 43.8594C147.412 43.1615 151.943 42.2917 156.526 41.8334C157.042 42.8177 157.375 43.875 157.683 44.9323C160.198 52.7709 162.756 60.5938 165.282 68.4271C165.735 69.8282 166.328 71.198 166.511 72.6719C163.203 73.4636 159.854 74.0782 156.584 75.0209C146.542 77.6146 136.813 81.323 127.516 85.9011C114.995 92.0053 103.339 99.8542 92.8701 109.031C86.6618 114.385 80.9535 120.323 75.6826 126.594C68.3128 135.417 61.8545 145 56.5472 155.193C55.9482 156.38 55.417 157.609 54.6566 158.708C53.2764 158.031 52.0524 157.094 50.7607 156.281C41.5107 150.359 32.2868 144.396 23.0472 138.458C21.6462 137.531 20.1305 136.776 18.8545 135.677C20.0889 132.917 21.766 130.385 23.2607 127.766C27.8337 120.125 33.0055 112.849 38.6722 105.979C41.5212 102.49 44.4951 99.0886 47.6878 95.9063C48.9899 94.5157 50.2607 93.0834 51.7087 91.8386C53.3701 90.2344 54.9795 88.5834 56.7399 87.0938C58.6514 85.1563 60.8389 83.5209 62.8701 81.7136C73.7243 72.7605 85.5941 65.0157 98.2503 58.8594C102.542 56.6407 107.016 54.7969 111.5 53.0105C115.589 51.3177 119.797 49.9427 124.016 48.6146C130.24 46.8282 136.469 44.9896 142.865 43.8594Z" fill="#FAFAFA"/>
</g>
<mask id="mask2_603_9" style="mask-type:luminance" maskUnits="userSpaceOnUse" x="92" y="97" width="54" height="62">
<path d="M92 97.3334H145.333V158.708H92V97.3334Z" fill="white"/>
</mask>
<g mask="url(#mask2_603_9)">
<path d="M118.151 98.3177C118.563 98.0469 119.214 97.5677 119.537 98.2187C127.146 110.776 134.724 123.359 142.328 135.922C143.089 137.25 143.979 138.51 144.672 139.88C141.427 142.417 137.99 144.708 134.683 147.172C130.683 150.099 126.651 152.984 122.662 155.932C121.302 156.854 120.037 157.927 118.584 158.708C116.193 156.349 114.177 153.641 111.927 151.151C105.948 144.161 99.943 137.193 93.943 130.224C93.4378 129.62 92.792 129.083 92.5264 128.333C92.5837 127.807 92.8232 127.323 93.0316 126.844C94.6462 123.516 96.6045 120.359 98.7607 117.359C104.099 109.99 110.61 103.437 118.151 98.3177Z" fill="#FAFAFA"/>
</g>
</g>
<defs>
<clipPath id="clip0_603_9">
<rect width="1163.2" height="158.707" fill="white"/>
</clipPath>
</defs>
</svg>
